<svg width="18" height="18" viewBox="0 0 18 18" fill="none" xmlns="http://www.w3.org/2000/svg">
<path d="M5.25 15.75C4.8375 15.75 4.4845 15.6033 4.191 15.3098C3.897 15.0158 3.75 14.6625 3.75 14.25V4.5C3.5375 4.5 3.35925 4.42825 3.21525 4.28475C3.07175 4.14075 3 3.9625 3 3.75C3 3.5375 3.07175 3.35925 3.21525 3.21525C3.35925 3.07175 3.5375 3 3.75 3H6.75C6.75 2.7875 6.822 2.60925 6.966 2.46525C7.1095 2.32175 7.2875 2.25 7.5 2.25H10.5C10.7125 2.25 10.8908 2.32175 11.0348 2.46525C11.1783 2.60925 11.25 2.7875 11.25 3H14.25C14.4625 3 14.6405 3.07175 14.784 3.21525C14.928 3.35925 15 3.5375 15 3.75C15 3.9625 14.928 4.14075 14.784 4.28475C14.6405 4.42825 14.4625 4.5 14.25 4.5V14.25C14.25 14.6625 14.1033 15.0158 13.8098 15.3098C13.5158 15.6033 13.1625 15.75 12.75 15.75H5.25ZM5.25 4.5V14.25H12.75V4.5H5.25ZM6.75 12C6.75 12.2125 6.822 12.3905 6.966 12.534C7.1095 12.678 7.2875 12.75 7.5 12.75C7.7125 12.75 7.89075 12.678 8.03475 12.534C8.17825 12.3905 8.25 12.2125 8.25 12V6.75C8.25 6.5375 8.17825 6.35925 8.03475 6.21525C7.89075 6.07175 7.7125 6 7.5 6C7.2875 6 7.1095 6.07175 6.966 6.21525C6.822 6.35925 6.75 6.5375 6.75 6.75V12ZM9.75 12C9.75 12.2125 9.822 12.3905 9.966 12.534C10.1095 12.678 10.2875 12.75 10.5 12.75C10.7125 12.75 10.8908 12.678 11.0348 12.534C11.1783 12.3905 11.25 12.2125 11.25 12V6.75C11.25 6.5375 11.1783 6.35925 11.0348 6.21525C10.8908 6.07175 10.7125 6 10.5 6C10.2875 6 10.1095 6.07175 9.966 6.21525C9.822 6.35925 9.75 6.5375 9.75 6.75V12Z" fill="#EF233C"/>
</svg>
