<svg width="32" height="32" viewBox="0 0 32 32" fill="none" xmlns="http://www.w3.org/2000/svg">
<path d="M23.265 24.3811L24.165 23.4871C28.329 23.6231 28.393 23.4771 28.576 23.0491L29.72 20.2641L29.805 20.0001L29.712 19.7691C29.663 19.6471 29.512 19.2831 26.912 16.8041V15.5001C29.912 12.6101 29.848 12.4621 29.677 12.0391L28.538 9.22514C28.367 8.80314 28.302 8.63814 24.168 8.75114L23.268 7.82114C23.3609 6.45124 23.3137 5.07544 23.127 3.71514L23.011 3.45214L20.037 2.15214C19.599 1.95214 19.445 1.88014 16.637 4.93814L15.375 4.91914C12.484 1.83314 12.347 1.88914 11.914 2.06414L9.14901 3.18214C8.71601 3.35714 8.56301 3.41914 8.73101 7.61914L7.83801 8.50914C3.67601 8.37314 3.61201 8.52114 3.43101 8.94714L2.28501 11.7331L2.19501 12.0001L2.28901 12.2321C2.33801 12.3521 2.48301 12.7121 5.08901 15.1941V16.4941C2.08901 19.3841 2.15401 19.5321 2.32601 19.9561L3.46401 22.7731C3.63801 23.2041 3.70001 23.3571 7.83301 23.2491L8.73301 24.1841C8.63972 25.5519 8.68562 26.9256 8.87001 28.2841L8.98601 28.5491L11.979 29.8571C12.414 30.0391 12.565 30.1041 15.365 27.0571L16.627 27.0731C19.522 30.1631 19.67 30.1031 20.093 29.9321L22.852 28.8171C23.288 28.6441 23.44 28.5831 23.265 24.3811ZM11.407 17.8571C11.0581 16.9452 10.9862 15.9505 11.2005 14.9979C11.4148 14.0452 11.9056 13.1771 12.6114 12.5024C13.3173 11.8277 14.2066 11.3765 15.1679 11.2054C16.1293 11.0343 17.1197 11.1509 18.015 11.5405C18.9103 11.9302 19.6706 12.5757 20.2004 13.3958C20.7302 14.216 21.0061 15.1744 20.9932 16.1507C20.9804 17.1271 20.6795 18.0779 20.1284 18.8839C19.5772 19.6898 18.8002 20.3151 17.895 20.6811C16.6599 21.1641 15.2838 21.1381 14.0679 20.6089C12.8519 20.0796 11.8952 19.0902 11.407 17.8571Z" fill="#00A7E1"/>
</svg>
