<svg width="40" height="40" viewBox="0 0 40 40" fill="none" xmlns="http://www.w3.org/2000/svg">
<path d="M20.0002 31.9999C15.8335 31.9999 12.1502 29.8666 10.0002 26.6666C10.0502 23.3333 16.6668 21.4999 20.0002 21.4999C23.3335 21.4999 29.9502 23.3333 30.0002 26.6666C28.8983 28.3073 27.4099 29.6518 25.6661 30.5819C23.9223 31.5119 21.9765 31.9989 20.0002 31.9999ZM20.0002 8.33325C21.3262 8.33325 22.598 8.86004 23.5357 9.79772C24.4734 10.7354 25.0002 12.0072 25.0002 13.3333C25.0002 14.6593 24.4734 15.9311 23.5357 16.8688C22.598 17.8065 21.3262 18.3333 20.0002 18.3333C18.6741 18.3333 17.4023 17.8065 16.4646 16.8688C15.5269 15.9311 15.0002 14.6593 15.0002 13.3333C15.0002 12.0072 15.5269 10.7354 16.4646 9.79772C17.4023 8.86004 18.6741 8.33325 20.0002 8.33325ZM20.0002 3.33325C17.8115 3.33325 15.6442 3.76435 13.6221 4.60193C11.6 5.4395 9.76269 6.66716 8.21505 8.21481C5.08944 11.3404 3.3335 15.5796 3.3335 19.9999C3.3335 24.4202 5.08944 28.6594 8.21505 31.785C9.76269 33.3327 11.6 34.5603 13.6221 35.3979C15.6442 36.2355 17.8115 36.6666 20.0002 36.6666C24.4204 36.6666 28.6597 34.9106 31.7853 31.785C34.9109 28.6594 36.6668 24.4202 36.6668 19.9999C36.6668 10.7833 29.1668 3.33325 20.0002 3.33325Z" fill="#C5C6C4"/>
</svg>
