<svg width="40" height="40" viewBox="0 0 40 40" fill="none" xmlns="http://www.w3.org/2000/svg">
<path d="M35 10.8333C35 14.0499 32.3833 16.6666 29.1667 16.6666C25.95 16.6666 23.3333 14.0499 23.3333 10.8333C23.3333 7.61659 25.95 4.99993 29.1667 4.99993C32.3833 4.99993 35 7.61659 35 10.8333ZM31.6667 19.6499C30.8333 19.8666 30 19.9999 29.1667 19.9999C26.7369 19.9955 24.4079 19.0283 22.6897 17.3102C20.9716 15.5921 20.0044 13.2631 20 10.8333C20 8.38326 20.9667 6.16659 22.5 4.51659C22.1975 4.14583 21.8162 3.84721 21.3837 3.6425C20.9512 3.43779 20.4785 3.33214 20 3.33326C18.1667 3.33326 16.6667 4.83326 16.6667 6.66659V7.14993C11.7167 8.61659 8.33333 13.1666 8.33333 18.3333V28.3333L5 31.6666V33.3333H35V31.6666L31.6667 28.3333V19.6499ZM20 38.3333C21.85 38.3333 23.3333 36.8499 23.3333 34.9999H16.6667C16.6667 35.884 17.0179 36.7318 17.643 37.3569C18.2681 37.9821 19.1159 38.3333 20 38.3333Z" fill="#C5C6C4"/>
</svg>
