<svg width="32" height="32" viewBox="0 0 32 32" fill="none" xmlns="http://www.w3.org/2000/svg">
<path d="M16 18.6667C15.6222 18.6667 15.3058 18.5387 15.0507 18.2827C14.7947 18.0276 14.6667 17.7111 14.6667 17.3333C14.6667 16.9556 14.7947 16.6387 15.0507 16.3827C15.3058 16.1276 15.6222 16 16 16C16.3778 16 16.6947 16.1276 16.9507 16.3827C17.2058 16.6387 17.3333 16.9556 17.3333 17.3333C17.3333 17.7111 17.2058 18.0276 16.9507 18.2827C16.6947 18.5387 16.3778 18.6667 16 18.6667ZM10.6667 18.6667C10.2889 18.6667 9.972 18.5387 9.716 18.2827C9.46089 18.0276 9.33333 17.7111 9.33333 17.3333C9.33333 16.9556 9.46089 16.6387 9.716 16.3827C9.972 16.1276 10.2889 16 10.6667 16C11.0444 16 11.3613 16.1276 11.6173 16.3827C11.8724 16.6387 12 16.9556 12 17.3333C12 17.7111 11.8724 18.0276 11.6173 18.2827C11.3613 18.5387 11.0444 18.6667 10.6667 18.6667ZM21.3333 18.6667C20.9556 18.6667 20.6391 18.5387 20.384 18.2827C20.128 18.0276 20 17.7111 20 17.3333C20 16.9556 20.128 16.6387 20.384 16.3827C20.6391 16.1276 20.9556 16 21.3333 16C21.7111 16 22.0276 16.1276 22.2827 16.3827C22.5387 16.6387 22.6667 16.9556 22.6667 17.3333C22.6667 17.7111 22.5387 18.0276 22.2827 18.2827C22.0276 18.5387 21.7111 18.6667 21.3333 18.6667ZM16 24C15.6222 24 15.3058 23.872 15.0507 23.616C14.7947 23.3609 14.6667 23.0444 14.6667 22.6667C14.6667 22.2889 14.7947 21.9724 15.0507 21.7173C15.3058 21.4613 15.6222 21.3333 16 21.3333C16.3778 21.3333 16.6947 21.4613 16.9507 21.7173C17.2058 21.9724 17.3333 22.2889 17.3333 22.6667C17.3333 23.0444 17.2058 23.3609 16.9507 23.616C16.6947 23.872 16.3778 24 16 24ZM10.6667 24C10.2889 24 9.972 23.872 9.716 23.616C9.46089 23.3609 9.33333 23.0444 9.33333 22.6667C9.33333 22.2889 9.46089 21.9724 9.716 21.7173C9.972 21.4613 10.2889 21.3333 10.6667 21.3333C11.0444 21.3333 11.3613 21.4613 11.6173 21.7173C11.8724 21.9724 12 22.2889 12 22.6667C12 23.0444 11.8724 23.3609 11.6173 23.616C11.3613 23.872 11.0444 24 10.6667 24ZM21.3333 24C20.9556 24 20.6391 23.872 20.384 23.616C20.128 23.3609 20 23.0444 20 22.6667C20 22.2889 20.128 21.9724 20.384 21.7173C20.6391 21.4613 20.9556 21.3333 21.3333 21.3333C21.7111 21.3333 22.0276 21.4613 22.2827 21.7173C22.5387 21.9724 22.6667 22.2889 22.6667 22.6667C22.6667 23.0444 22.5387 23.3609 22.2827 23.616C22.0276 23.872 21.7111 24 21.3333 24ZM6.66667 29.3333C5.93333 29.3333 5.30533 29.0724 4.78267 28.5507C4.26089 28.028 4 27.4 4 26.6667V8C4 7.26667 4.26089 6.63911 4.78267 6.11733C5.30533 5.59467 5.93333 5.33333 6.66667 5.33333H8V4C8 3.62222 8.12756 3.30533 8.38267 3.04933C8.63867 2.79422 8.95556 2.66667 9.33333 2.66667C9.71111 2.66667 10.028 2.79422 10.284 3.04933C10.5391 3.30533 10.6667 3.62222 10.6667 4V5.33333H21.3333V4C21.3333 3.62222 21.4613 3.30533 21.7173 3.04933C21.9724 2.79422 22.2889 2.66667 22.6667 2.66667C23.0444 2.66667 23.3609 2.79422 23.616 3.04933C23.872 3.30533 24 3.62222 24 4V5.33333H25.3333C26.0667 5.33333 26.6947 5.59467 27.2173 6.11733C27.7391 6.63911 28 7.26667 28 8V26.6667C28 27.4 27.7391 28.028 27.2173 28.5507C26.6947 29.0724 26.0667 29.3333 25.3333 29.3333H6.66667ZM6.66667 26.6667H25.3333V13.3333H6.66667V26.6667Z" fill="#D90429"/>
</svg>
