<svg width="25" height="25" viewBox="0 0 25 25" fill="none" xmlns="http://www.w3.org/2000/svg">
<path d="M5.18251 16.5885L7.81272 12.5L5.18251 8.41146C4.73112 7.71702 4.70508 7.00938 5.10439 6.28854C5.50369 5.56841 6.12001 5.20834 6.95334 5.20834H15.6252C15.9724 5.20834 16.2981 5.28646 16.6023 5.44271C16.9058 5.59896 17.153 5.81597 17.344 6.09375L21.0158 11.3021C21.2589 11.6667 21.3804 12.066 21.3804 12.5C21.3804 12.934 21.2589 13.3333 21.0158 13.6979L17.344 18.9063C17.153 19.184 16.9058 19.401 16.6023 19.5573C16.2981 19.7135 15.9724 19.7917 15.6252 19.7917H6.95334C6.12001 19.7917 5.50369 19.4313 5.10439 18.7104C4.70508 17.9903 4.73112 17.283 5.18251 16.5885ZM6.9273 17.7083H15.6252L19.3231 12.5L15.6252 7.29167H6.9273L10.3127 12.5L6.9273 17.7083Z" fill="black"/>
</svg>
