<svg width="19" height="19" viewBox="0 0 19 19" fill="none" xmlns="http://www.w3.org/2000/svg">
<path d="M14.25 6.33317H15.8333C16.0433 6.33317 16.2447 6.41658 16.3931 6.56504C16.5416 6.71351 16.625 6.91487 16.625 7.12484V16.6248C16.625 16.8348 16.5416 17.0362 16.3931 17.1846C16.2447 17.3331 16.0433 17.4165 15.8333 17.4165H3.16667C2.9567 17.4165 2.75534 17.3331 2.60687 17.1846C2.45841 17.0362 2.375 16.8348 2.375 16.6248V7.12484C2.375 6.91487 2.45841 6.71351 2.60687 6.56504C2.75534 6.41658 2.9567 6.33317 3.16667 6.33317H4.75V5.5415C4.75 4.28173 5.25045 3.07354 6.14124 2.18275C7.03204 1.29195 8.24022 0.791504 9.5 0.791504C10.7598 0.791504 11.968 1.29195 12.8588 2.18275C13.7496 3.07354 14.25 4.28173 14.25 5.5415V6.33317ZM3.95833 7.9165V15.8332H15.0417V7.9165H3.95833ZM8.70833 11.0832H10.2917V12.6665H8.70833V11.0832ZM5.54167 11.0832H7.125V12.6665H5.54167V11.0832ZM11.875 11.0832H13.4583V12.6665H11.875V11.0832ZM12.6667 6.33317V5.5415C12.6667 4.70165 12.333 3.8962 11.7392 3.30233C11.1453 2.70847 10.3399 2.37484 9.5 2.37484C8.66015 2.37484 7.85469 2.70847 7.26083 3.30233C6.66696 3.8962 6.33333 4.70165 6.33333 5.5415V6.33317H12.6667Z" fill="#C5C6C4"/>
</svg>
