<svg width="19" height="19" viewBox="0 0 19 19" fill="none" xmlns="http://www.w3.org/2000/svg">
<path d="M15.8334 17.4165H14.2501V15.8332C14.2501 15.2033 13.9999 14.5992 13.5545 14.1538C13.1091 13.7084 12.505 13.4582 11.8751 13.4582H7.12508C6.49519 13.4582 5.8911 13.7084 5.4457 14.1538C5.0003 14.5992 4.75008 15.2033 4.75008 15.8332V17.4165H3.16675V15.8332C3.16675 14.7834 3.58379 13.7765 4.32612 13.0342C5.06845 12.2919 6.07527 11.8748 7.12508 11.8748H11.8751C12.9249 11.8748 13.9317 12.2919 14.674 13.0342C15.4164 13.7765 15.8334 14.7834 15.8334 15.8332V17.4165ZM9.50008 10.2915C8.8763 10.2915 8.25863 10.1686 7.68233 9.92993C7.10604 9.69122 6.5824 9.34134 6.14132 8.90026C5.70025 8.45918 5.35036 7.93555 5.11165 7.35925C4.87294 6.78295 4.75008 6.16528 4.75008 5.5415C4.75008 4.91773 4.87294 4.30005 5.11165 3.72376C5.35036 3.14746 5.70025 2.62382 6.14132 2.18275C6.5824 1.74167 7.10604 1.39179 7.68233 1.15308C8.25863 0.914366 8.8763 0.791504 9.50008 0.791504C10.7599 0.791504 11.968 1.29195 12.8588 2.18275C13.7496 3.07354 14.2501 4.28173 14.2501 5.5415C14.2501 6.80128 13.7496 8.00946 12.8588 8.90026C11.968 9.79106 10.7599 10.2915 9.50008 10.2915ZM9.50008 8.70817C10.3399 8.70817 11.1454 8.37454 11.7393 7.78067C12.3331 7.18681 12.6667 6.38136 12.6667 5.5415C12.6667 4.70165 12.3331 3.8962 11.7393 3.30233C11.1454 2.70847 10.3399 2.37484 9.50008 2.37484C8.66023 2.37484 7.85477 2.70847 7.26091 3.30233C6.66704 3.8962 6.33341 4.70165 6.33341 5.5415C6.33341 6.38136 6.66704 7.18681 7.26091 7.78067C7.85477 8.37454 8.66023 8.70817 9.50008 8.70817Z" fill="#C5C6C4"/>
</svg>
