<svg width="32" height="32" viewBox="0 0 32 32" fill="none" xmlns="http://www.w3.org/2000/svg">
<path d="M17.3357 10.676C21.5611 10.676 23.9571 13.472 24.3051 16.8493H24.4117C25.0574 16.8485 25.697 16.9748 26.2938 17.2211C26.8907 17.4674 27.4332 17.8289 27.8903 18.285C28.3474 18.741 28.7102 19.2826 28.958 19.8788C29.2058 20.4751 29.3337 21.1143 29.3344 21.76C29.3335 22.4056 29.2055 23.0447 28.9576 23.6408C28.7098 24.2369 28.3469 24.7783 27.8898 25.2342C27.4327 25.6901 26.8903 26.0514 26.2935 26.2977C25.6967 26.5439 25.0573 26.6702 24.4117 26.6693H10.2597C9.61414 26.6702 8.97471 26.5439 8.37794 26.2977C7.78117 26.0514 7.23874 25.6901 6.78163 25.2342C6.32452 24.7783 5.96167 24.2369 5.71381 23.6408C5.46595 23.0447 5.33793 22.4056 5.33705 21.76C5.33775 21.1143 5.46565 20.4751 5.71343 19.8788C5.96121 19.2826 6.32403 18.741 6.78116 18.285C7.23829 17.8289 7.78078 17.4674 8.37763 17.2211C8.97449 16.9748 9.61403 16.8485 10.2597 16.8493H10.3664C10.7171 13.4493 13.1117 10.676 17.3357 10.676ZM17.3357 12.6733C14.5744 12.6733 12.1664 14.8507 12.1664 17.8587C12.1664 18.3347 11.7411 18.7093 11.2544 18.7093H10.3344C8.65305 18.7093 7.28905 20.044 7.28905 21.6907C7.28905 23.3373 8.65305 24.672 10.3344 24.672H24.3371C26.0197 24.672 27.3824 23.3387 27.3824 21.6907C27.3824 20.044 26.0197 18.7093 24.3371 18.7093H23.4171C22.9304 18.7093 22.5051 18.336 22.5051 17.8587C22.5051 14.812 20.0971 12.672 17.3357 12.672V12.6733ZM5.82372 16.216C5.91633 16.4395 5.9248 16.6889 5.84758 16.9181C5.77035 17.1473 5.61266 17.3408 5.40372 17.4627L5.28239 17.5227L4.04639 18.0347C3.81258 18.13 3.55138 18.1333 3.31522 18.044C3.07906 17.9547 2.88542 17.7793 2.77319 17.5532C2.66095 17.327 2.63842 17.0668 2.71011 16.8247C2.78181 16.5826 2.94243 16.3766 3.15972 16.248L3.28105 16.1867L4.51705 15.676C4.76194 15.5744 5.03716 15.5742 5.28218 15.6755C5.52721 15.7767 5.722 15.9712 5.82372 16.216ZM14.4731 9.772L14.2437 9.84933C13.5503 10.0924 12.8948 10.4327 12.2971 10.86C11.6551 10.6515 10.9642 10.6476 10.3199 10.849C9.67567 11.0503 9.10991 11.4469 8.70093 11.9839C8.29194 12.5208 8.05994 13.1716 8.03703 13.8462C8.01413 14.5208 8.20144 15.1859 8.57305 15.7493C7.92274 15.9317 7.30693 16.22 6.75039 16.6027C6.13928 15.5523 5.91101 14.3226 6.10443 13.1229C6.29785 11.9232 6.901 10.8276 7.81125 10.0225C8.72149 9.21741 9.88258 8.7526 11.0969 8.70717C12.3113 8.66174 13.5039 9.0385 14.4717 9.77333L14.4731 9.772ZM3.91972 9.81333L4.05972 9.86L5.29572 10.372C5.52789 10.4693 5.71481 10.6506 5.81916 10.8797C5.92351 11.1088 5.93762 11.3688 5.85867 11.6079C5.77972 11.8469 5.61352 12.0474 5.39325 12.1692C5.17298 12.2911 4.91485 12.3254 4.67039 12.2653L4.53305 12.2213L3.29705 11.7093C3.06489 11.612 2.87797 11.4307 2.77362 11.2016C2.66926 10.9725 2.65515 10.7125 2.7341 10.4735C2.81305 10.2344 2.97925 10.034 3.19952 9.91209C3.41979 9.79021 3.67793 9.7559 3.92239 9.816L3.91972 9.81333ZM9.00639 5.832L9.06639 5.95333L9.57839 7.18933C9.67369 7.42314 9.67701 7.68434 9.5877 7.9205C9.49839 8.15666 9.32306 8.3503 9.09689 8.46253C8.87073 8.57477 8.61048 8.5973 8.36839 8.52561C8.1263 8.45391 7.92029 8.29329 7.79172 8.076L7.73039 7.95467L7.21972 6.71867C7.12442 6.48486 7.1211 6.22366 7.21041 5.9875C7.29972 5.75134 7.47505 5.5577 7.70122 5.44546C7.92738 5.33323 8.18763 5.31069 8.42972 5.38239C8.67181 5.45409 8.87782 5.6147 9.00639 5.832ZM14.8117 5.40667C15.0331 5.49855 15.2141 5.66688 15.3218 5.88102C15.4295 6.09515 15.4566 6.34084 15.3984 6.57333L15.3517 6.71333L14.8411 7.94933C14.7452 8.18372 14.564 8.37303 14.3341 8.47903C14.1041 8.58504 13.8425 8.59986 13.602 8.52049C13.3615 8.44113 13.1601 8.27349 13.0385 8.05142C12.9168 7.82935 12.8839 7.56938 12.9464 7.324L12.9931 7.18267L13.5051 5.948C13.5553 5.82665 13.6289 5.71638 13.7218 5.6235C13.8147 5.53062 13.9249 5.45694 14.0463 5.40667C14.1676 5.3564 14.2976 5.33053 14.429 5.33053C14.5603 5.33053 14.6904 5.3564 14.8117 5.40667Z" fill="#00A7E1"/>
</svg>
